<?xml version="1.0" encoding="UTF-8"?>
<svg width="1254" height="1254" viewBox="0 0 1254 1254" xmlns="http://www.w3.org/2000/svg" role="img" aria-label="Staaml Corp">
  <title>Staaml Corp</title>
  <defs>
    <linearGradient id="metalDark" x1="0%" y1="0%" x2="100%" y2="100%">
      <stop offset="0%" stop-color="#6f7782"/>
      <stop offset="50%" stop-color="#2b3440"/>
      <stop offset="100%" stop-color="#0b1624"/>
    </linearGradient>
    <linearGradient id="blueGrad" x1="0%" y1="0%" x2="100%" y2="100%">
      <stop offset="0%" stop-color="#1f5fbf"/>
      <stop offset="100%" stop-color="#0a1a2f"/>
    </linearGradient>
  </defs>
  <rect width="100%" height="100%" fill="#ffffff"/>
  <path d="M 250 400 C 150 400, 150 250, 350 250 L 750 250 C 900 250, 900 400, 750 400 L 400 400 C 250 400, 250 550, 400 550 L 750 550 C 950 550, 950 700, 750 700 L 300 700 C 150 700, 150 550, 250 550" fill="url(#metalDark)"/>
  <path d="M 700 750 L 900 250 L 1100 750 L 1020 750 L 980 650 L 820 650 L 780 750 Z" fill="url(#blueGrad)"/>
  <path d="M 900 600 L 950 700 L 850 700 Z" fill="#ffffff"/>
  <text x="50%" y="900" text-anchor="middle" font-family="Arial, Helvetica, sans-serif" font-size="120" letter-spacing="20" fill="#0b1624">STAAML</text>
  <text x="50%" y="1000" text-anchor="middle" font-family="Arial, Helvetica, sans-serif" font-size="60" letter-spacing="15" fill="#1f5fbf">CORP</text>
</svg>
